<svg
            width="18"
            height="22"
            viewBox="0 0 18 22"
            fill="none"
            xmlns="http://www.w3.org/2000/svg"
          >
            <path
              d="M4.89067 1.47399L4.89065 1.47397L4.88818 1.47645L0.758541 5.60843C0.526894 5.84008 0.411098 6.14359 0.411098 6.44849C0.411098 6.75339 0.526894 7.0569 0.758541 7.28854C1.22211 7.75211 1.97293 7.7513 2.43809 7.28911L2.43881 7.28839L4.69782 5.02544L4.69782 19.768C4.69782 20.4241 5.22928 20.9555 5.88532 20.9555C6.54054 20.9555 7.07282 20.4272 7.07282 19.7704L7.07282 2.22974C7.07282 1.5737 6.54136 1.04224 5.88532 1.04224C5.64529 1.04224 5.4212 1.11394 5.23493 1.23622C5.10652 1.29411 4.9906 1.37676 4.89067 1.47399ZM13.0188 20.6031L13.021 20.6013L17.1507 17.2216L17.1507 17.2216C17.6584 16.8059 17.7325 16.0578 17.317 15.5503C16.9014 15.0426 16.1532 14.9684 15.6457 15.384L15.6457 15.384L13.2978 17.3066V2.22974C13.2978 1.5737 12.7664 1.04224 12.1103 1.04224C11.4543 1.04224 10.9228 1.5737 10.9228 2.22974V19.7704C10.9228 20.4264 11.4543 20.9579 12.1103 20.9579C12.3505 20.9579 12.5746 20.8861 12.7609 20.7637C12.8542 20.7214 12.9407 20.6656 13.0188 20.6031L13.0188 20.6031Z"
              fill="#3BA292"
              stroke="#3BA192"
              strokeWidth="0.5"
            ></path>
          </svg>