<svg xmlns="http://www.w3.org/2000/svg" height="20" viewBox="0 0 20 20" width="20"><g fill-rule="evenodd"><path d="m.00100556 0v15.5733243 15.5766349h236.79533944v-15.5766349-15.5733243z"/><path d="m.00100556 205.991666v15.267055 15.571669.311235h236.79533944v-.311235-15.571669-15.267055z"/><path d="m164.477394 186.996994h-92.0018242c-8.6444442-5.848431-16.1459045-13.262029-22.0150095-21.892234h-50.45888437v21.892234 9.639018h91.63982327 53.6699648 91.643176v-9.639018-21.892234h-50.462237c-5.869105 8.630205-13.370565 16.043803-22.015009 21.892234"/><path d="m199.398736 104.650422h-161.8445085c1.3575029-7.7185881 3.7708413-15.0752099 7.1193484-21.8922344h-44.6735759v21.8922344 9.642369h36.4212992 164.1103648 36.4213v-9.642369-21.8922344h-44.673576c3.348507 6.8170245 5.761845 14.1736463 7.119348 21.8922344"/><path d="m196.135031 145.824378h-155.3150873c-2.399931-6.927625-3.9183231-14.264138-4.374176-21.892234h-36.44476214v21.892234 9.639018h236.95296344v-9.639018-21.892234h-36.444762c-.459205 7.628096-1.977597 14.964609-4.374176 21.892234"/><path d="m179.08446 63.4778058h-121.2166266c8.9260003-9.739564 20.1547277-17.3374963 32.8415138-21.8922339h-90.70800646v21.8922339 9.6390179h236.95296326v-9.6390179-21.8922339h-90.711358c12.690138 4.5547376 23.915514 12.1526699 32.841514 21.8922339"/></g></svg>