<svg width="282" height="124" viewBox="0 0 282 124" fill="none" xmlns="http://www.w3.org/2000/svg">
<rect width="282" height="124" fill="#B0FFF0"/>
<g clip-path="url(#clip0_670_60114)">
<path d="M270 12H12V112H270V12Z" fill="#B0FFF0"/>
<path d="M108.812 31.802V48.1386H103.323V31.802H97.8333V48.1386H92.3439V31.802H86.8546V48.1386H59.4077V31.802H53.9184V48.1386V53.5842H108.812V59.0297H103.323H97.8333H48.429V31.802H42.9397V59.0297H37.4503V31.802H31.9609V59.0297V64.4753V91.703H37.4503V75.3664H42.9397V91.703H48.429V75.3664H53.9184V91.703H59.4077V75.3664H86.8546V91.703H92.3439V75.3664V69.9208H48.429H42.9397H37.4503V64.4753H42.9397H48.429H97.8333V91.703H103.323V64.4753H108.812V91.703H114.301V64.4753V59.0297V53.5842V48.1386V31.802H108.812Z" fill="#222223"/>
<path d="M136.812 32.4851C139.031 32.4851 140.699 32.8647 141.816 33.6237C142.933 34.3828 143.492 35.7491 143.492 37.7227C143.492 39.7115 142.933 41.093 141.816 41.8673C140.699 42.6263 139.031 43.0059 136.812 43.0059H134.149V48.5396H132.267V32.4851H136.812ZM136.835 41.4118C137.6 41.4118 138.243 41.3663 138.763 41.2752C139.284 41.1841 139.773 41.0171 140.232 40.7742C140.691 40.5161 141.036 40.1366 141.265 39.6356C141.495 39.1346 141.609 38.497 141.609 37.7227C141.609 36.2805 141.204 35.3164 140.393 34.8307C139.597 34.3297 138.411 34.0792 136.835 34.0792H134.149V41.4118H136.835Z" fill="#222223"/>
<path d="M146.099 48.5397V38.5654C146.099 37.4876 146.627 36.9714 147.683 37.0169L154.018 37.2219V38.8159L147.981 38.611V48.5397H146.099Z" fill="#222223"/>
<path d="M154.965 42.8694C154.965 41.1994 155.524 39.8027 156.641 38.6793C157.758 37.5559 159.212 36.9941 161.002 36.9941C162.778 36.9941 164.216 37.5559 165.318 38.6793C166.435 39.8027 166.994 41.1994 166.994 42.8694C166.994 44.5545 166.435 45.9588 165.318 47.0823C164.216 48.2057 162.778 48.7674 161.002 48.7674C159.212 48.7674 157.758 48.2057 156.641 47.0823C155.524 45.9588 154.965 44.5545 154.965 42.8694ZM156.847 42.8694C156.847 44.1143 157.214 45.1466 157.949 45.9664C158.684 46.771 159.702 47.1734 161.002 47.1734C162.303 47.1734 163.313 46.7634 164.032 45.9436C164.767 45.1238 165.134 44.0991 165.134 42.8694C165.134 41.6397 164.767 40.6225 164.032 39.8179C163.313 38.9981 162.303 38.5882 161.002 38.5882C159.702 38.5882 158.684 38.9981 157.949 39.8179C157.214 40.6225 156.847 41.6397 156.847 42.8694Z" fill="#222223"/>
<path d="M169.155 42.8694C169.155 41.1994 169.714 39.8027 170.831 38.6793C171.948 37.5559 173.402 36.9941 175.193 36.9941C176.968 36.9941 178.406 37.5559 179.508 38.6793C180.626 39.8027 181.184 41.1994 181.184 42.8694C181.184 44.5545 180.626 45.9588 179.508 47.0823C178.406 48.2057 176.968 48.7674 175.193 48.7674C173.402 48.7674 171.948 48.2057 170.831 47.0823C169.714 45.9588 169.155 44.5545 169.155 42.8694ZM171.038 42.8694C171.038 44.1143 171.405 45.1466 172.139 45.9664C172.874 46.771 173.892 47.1734 175.193 47.1734C176.494 47.1734 177.504 46.7634 178.223 45.9436C178.957 45.1238 179.325 44.0991 179.325 42.8694C179.325 41.6397 178.957 40.6225 178.223 39.8179C177.504 38.9981 176.494 38.5882 175.193 38.5882C173.892 38.5882 172.874 38.9981 172.139 39.8179C171.405 40.6225 171.038 41.6397 171.038 42.8694Z" fill="#222223"/>
<path d="M189.249 33.3961C188.545 33.3961 188.048 33.563 187.757 33.8971C187.481 34.2311 187.343 34.7776 187.343 35.5367V37.2218H190.672V38.8159H187.343V46.9456H190.672V48.5396H182.959V46.9456H185.484V38.8159H182.959V37.2218H185.484V35.4911C185.484 33.0317 186.77 31.802 189.341 31.802H191.315V33.3961H189.249Z" fill="#222223"/>
<path d="M192.604 42.7328C192.604 40.9413 193.109 39.5371 194.119 38.5199C195.144 37.5027 196.483 36.9941 198.136 36.9941C199.758 36.9941 201.051 37.4799 202.015 38.4516C202.979 39.4232 203.461 40.7743 203.461 42.505V43.2337H194.44C194.501 44.4179 194.846 45.3819 195.473 46.1258C196.116 46.8545 197.095 47.2189 198.411 47.2189C199.36 47.2189 200.14 46.9987 200.753 46.5585C201.365 46.1031 201.77 45.4427 201.969 44.5773H203.852C203.729 45.0783 203.546 45.5489 203.301 45.9892C203.071 46.4294 202.75 46.8697 202.337 47.31C201.939 47.7502 201.395 48.107 200.707 48.3803C200.034 48.6383 199.268 48.7674 198.411 48.7674C196.483 48.7674 195.029 48.2057 194.05 47.0823C193.086 45.9436 192.604 44.4938 192.604 42.7328ZM194.44 41.8219H201.625C201.625 40.8806 201.319 40.1064 200.707 39.4991C200.095 38.8767 199.238 38.5654 198.136 38.5654C197.034 38.5654 196.139 38.8767 195.45 39.4991C194.777 40.1215 194.44 40.8958 194.44 41.8219Z" fill="#222223"/>
<path d="M218.153 48.5396H216.27V46.8773L216.592 45.602H216.041C215.781 46.5281 215.253 47.2871 214.457 47.8792C213.676 48.4713 212.666 48.7673 211.427 48.7673C209.805 48.7673 208.488 48.2132 207.478 47.105C206.484 45.9967 205.986 44.5848 205.986 42.8693C205.986 41.169 206.484 39.7647 207.478 38.6565C208.488 37.5482 209.805 36.9941 211.427 36.9941C212.666 36.9941 213.676 37.2901 214.457 37.8822C215.253 38.4743 215.781 39.241 216.041 40.1822H216.592L216.27 38.8842V31.802H218.153V48.5396ZM216.27 42.8693C216.27 41.4422 215.873 40.372 215.077 39.6584C214.281 38.9449 213.248 38.5881 211.978 38.5881C210.723 38.5881 209.721 38.9449 208.971 39.6584C208.236 40.3568 207.869 41.4271 207.869 42.8693C207.869 44.3116 208.236 45.3895 208.971 46.103C209.721 46.8165 210.723 47.1733 211.978 47.1733C213.248 47.1733 214.281 46.8165 215.077 46.103C215.873 45.3895 216.27 44.3116 216.27 42.8693Z" fill="#222223"/>
<path d="M132.267 70.3219V53.5842H134.149V60.6664L133.851 61.9644H134.379C134.639 61.0232 135.159 60.2565 135.939 59.6644C136.735 59.0723 137.76 58.7763 139.016 58.7763C140.638 58.7763 141.946 59.3304 142.941 60.4387C143.935 61.5471 144.433 62.9511 144.433 64.6516C144.433 66.3669 143.935 67.7788 142.941 68.8872C141.946 69.9956 140.638 70.5496 139.016 70.5496C137.76 70.5496 136.735 70.2535 135.939 69.6615C135.159 69.0694 134.639 68.3105 134.379 67.3842H133.851L134.149 68.6595V70.3219H132.267ZM134.149 64.6516C134.149 66.0936 134.547 67.1719 135.343 67.8852C136.154 68.5986 137.187 68.9555 138.442 68.9555C139.697 68.9555 140.691 68.5986 141.426 67.8852C142.176 67.1719 142.551 66.0936 142.551 64.6516C142.551 63.2095 142.176 62.1392 141.426 61.4407C140.691 60.7272 139.697 60.3704 138.442 60.3704C137.187 60.3704 136.154 60.7272 135.343 61.4407C134.547 62.154 134.149 63.2243 134.149 64.6516Z" fill="#222223"/>
<path d="M155.166 59.0039H157.209L152.25 70.2079V73.3732C152.25 74.3143 151.722 74.7623 150.666 74.7168L146.259 74.5118V72.9178L150.368 73.1227V70.2079L145.387 59.0039H147.453L151.034 67.8168V68.6821H151.585V67.8168L155.166 59.0039Z" fill="#222223"/>
<path d="M178.692 54.2673H180.551V70.3218H178.692V63.1941H169.142V70.3218H167.26V54.2673H169.142V61.6H178.692V54.2673Z" fill="#222223"/>
<path d="M183.346 67.1791C183.346 65.236 184.593 64.135 187.087 63.8771L191.633 63.4444C191.526 61.3797 190.454 60.3474 188.419 60.3474C187.501 60.3474 186.736 60.5751 186.123 61.0306C185.526 61.486 185.228 62.2147 185.228 63.2167H183.392C183.392 61.987 183.843 60.9395 184.746 60.0741C185.649 59.2088 186.873 58.7761 188.419 58.7761C189.995 58.7761 191.235 59.2468 192.138 60.188C193.056 61.1292 193.515 62.3667 193.515 63.8999V68.7276H195.191V70.3217H193.171C192.268 70.3217 191.816 69.8816 191.816 69.0009V68.386L192.115 67.2019H191.564C190.998 69.4335 189.529 70.5494 187.156 70.5494C186.529 70.5494 185.971 70.4736 185.481 70.3217C185.006 70.1548 184.639 69.9573 184.379 69.7296C184.119 69.4865 183.905 69.2058 183.736 68.887C183.568 68.5529 183.46 68.2568 183.415 67.9989C183.369 67.7256 183.346 67.4524 183.346 67.1791ZM185.228 66.9514C185.228 67.589 185.42 68.0826 185.802 68.4316C186.185 68.7806 186.713 68.9553 187.386 68.9553C188.656 68.9553 189.681 68.5682 190.462 67.7939C191.242 67.0197 191.633 66.0331 191.633 64.8335L187.409 65.2662C186.659 65.342 186.108 65.5093 185.756 65.7672C185.404 66.0103 185.228 66.4048 185.228 66.9514Z" fill="#222223"/>
<path d="M196.482 64.6514C196.482 62.9662 197.002 61.5697 198.043 60.4613C199.099 59.3379 200.523 58.7761 202.313 58.7761C203.109 58.7761 203.874 58.9203 204.609 59.2088C205.343 59.4821 206.009 59.9755 206.606 60.689C207.203 61.3874 207.547 62.2529 207.639 63.285H205.733C205.443 61.3418 204.302 60.3702 202.313 60.3702C201.028 60.3702 200.048 60.7725 199.375 61.5771C198.701 62.3816 198.365 63.4063 198.365 64.6514C198.365 65.8964 198.701 66.9286 199.375 67.7484C200.048 68.5529 201.028 68.9553 202.313 68.9553C204.302 68.9553 205.443 67.9836 205.733 66.0405H207.639C207.547 67.0727 207.203 67.9459 206.606 68.6593C206.009 69.3578 205.343 69.8509 204.609 70.1395C203.874 70.4128 203.109 70.5494 202.313 70.5494C200.523 70.5494 199.099 69.9954 198.043 68.887C197.002 67.7637 196.482 66.3519 196.482 64.6514Z" fill="#222223"/>
<path d="M218.449 70.3219L214.639 65.0615L212.251 66.3595V70.3219H210.369V53.5842H212.251V64.4011L218.059 61.2585L217.83 59.004H219.712L219.896 61.0763C219.957 61.805 219.651 62.3516 218.977 62.7159L216.177 64.2417L220.584 70.3219H218.449Z" fill="#222223"/>
<path d="M221.993 64.5147C221.993 62.7232 222.498 61.319 223.508 60.3019C224.533 59.2847 225.873 58.7761 227.525 58.7761C229.147 58.7761 230.441 59.2619 231.405 60.2335C232.369 61.2052 232.851 62.5563 232.851 64.287V65.0157H223.83C223.89 66.1999 224.235 67.1637 224.863 67.9078C225.505 68.6365 226.484 69.0009 227.801 69.0009C228.75 69.0009 229.53 68.7806 230.142 68.3405C230.754 67.885 231.16 67.2246 231.359 66.3593H233.241C233.119 66.8603 232.935 67.3311 232.69 67.7712C232.461 68.2113 232.139 68.6519 231.726 69.092C231.328 69.5321 230.785 69.889 230.096 70.1623C229.423 70.4202 228.658 70.5494 227.801 70.5494C225.873 70.5494 224.418 69.9875 223.439 68.8642C222.475 67.7256 221.993 66.2756 221.993 64.5147ZM223.83 63.6038H231.015C231.015 62.6628 230.708 61.8885 230.096 61.2811C229.484 60.6586 228.627 60.3474 227.525 60.3474C226.424 60.3474 225.528 60.6586 224.84 61.2811C224.166 61.9033 223.83 62.6776 223.83 63.6038Z" fill="#222223"/>
<path d="M241.827 60.3702C240.603 60.3702 239.608 60.8181 238.843 61.7137C238.093 62.6093 237.718 63.8088 237.718 65.3118V70.3217H235.836V59.0038H237.718V60.9623L237.42 62.2603H237.948C238.193 61.1976 238.682 60.355 239.417 59.7326C240.167 59.0949 241.139 58.7761 242.332 58.7761C243.664 58.7761 244.704 59.1633 245.454 59.9375C246.204 60.7118 246.579 61.8657 246.579 63.3989V70.3217H244.72V63.6494C244.72 62.4806 244.483 61.6454 244.008 61.1444C243.549 60.6283 242.822 60.3702 241.827 60.3702Z" fill="#222223"/>
<path d="M134.916 91.121C136.621 91.121 137.655 90.307 137.655 88.954C137.655 87.502 136.478 87.117 135.499 86.809L134.256 86.424C133.596 86.215 132.716 86.039 132.716 85.192C132.716 84.455 133.398 84.015 134.366 84.015C135.587 84.015 136.346 84.62 136.423 85.709H137.38C137.259 84.07 136.17 83.179 134.41 83.179C132.815 83.179 131.792 83.993 131.792 85.236C131.792 86.743 133.343 87.073 133.959 87.271L135.29 87.689C136.027 87.92 136.709 88.217 136.709 88.998C136.709 89.801 136.093 90.285 134.916 90.285C133.563 90.285 132.628 89.658 132.518 88.668H131.55C131.649 90.12 132.98 91.121 134.916 91.121ZM139.783 91V87.458C139.794 86.567 140.432 85.841 141.521 85.841C142.302 85.841 142.786 86.347 142.786 87.128V91H143.688V87.458C143.699 86.567 144.337 85.841 145.426 85.841C146.207 85.841 146.691 86.347 146.691 87.128V91H147.604V87.095C147.604 85.907 146.812 85.038 145.58 85.038C144.689 85.038 143.886 85.511 143.512 86.193C143.215 85.489 142.555 85.038 141.675 85.038C140.839 85.038 140.08 85.445 139.684 86.072L139.596 85.17H138.87V91H139.783ZM150.913 91.088C151.925 91.088 152.585 90.67 152.926 89.999V90.175C152.926 90.714 153.256 91 153.883 91H154.4V90.252H154.07C153.872 90.252 153.773 90.153 153.773 89.966V87.128C153.773 85.896 152.849 85.038 151.408 85.038C150.022 85.038 148.988 85.841 148.878 86.985H149.78C149.879 86.292 150.539 85.819 151.386 85.819C152.266 85.819 152.871 86.336 152.882 87.073C152.871 87.546 152.101 87.535 151.21 87.623C150.044 87.744 148.746 87.997 148.746 89.339C148.746 90.406 149.593 91.088 150.913 91.088ZM151.045 90.307C150.209 90.307 149.659 89.922 149.659 89.317C149.659 88.569 150.462 88.459 151.265 88.371C151.98 88.294 152.629 88.228 152.882 87.887V88.646C152.882 89.614 152.134 90.307 151.045 90.307ZM156.337 91V87.942C156.337 86.743 157.052 86.039 158.284 86.039H158.482V85.137H158.284C157.316 85.137 156.634 85.533 156.26 86.281L156.15 85.17H155.424V91H156.337ZM162.563 91V90.23H161.914C161.375 90.23 161.089 89.922 161.089 89.339V85.94H162.662V85.17H161.089V83.179H160.176V85.17H159.098V85.94H160.176V89.339C160.176 90.417 160.781 91 161.914 91H162.563ZM169.806 91.121C171.819 91.121 173.095 90.043 173.436 88.041H172.479C172.182 89.493 171.247 90.274 169.806 90.274C168.079 90.274 167.012 89.097 167.012 87.128C167.012 85.225 168.079 84.026 169.806 84.026C171.203 84.026 172.193 84.851 172.479 86.259H173.436C173.106 84.323 171.764 83.179 169.806 83.179C167.441 83.179 166.044 84.84 166.044 87.128C166.044 89.46 167.441 91.121 169.806 91.121ZM177.333 91.121C178.972 91.121 180.193 90.043 180.193 88.03C180.193 86.38 179.192 85.038 177.333 85.038C175.749 85.038 174.473 86.083 174.473 88.03C174.473 89.79 175.463 91.121 177.333 91.121ZM177.333 90.329C176.277 90.329 175.408 89.526 175.408 88.03C175.408 86.721 176.167 85.83 177.333 85.83C178.499 85.83 179.258 86.721 179.258 88.03C179.258 89.295 178.576 90.329 177.333 90.329ZM182.301 91V87.458C182.312 86.567 182.95 85.841 183.995 85.841C184.875 85.841 185.403 86.358 185.403 87.172V91H186.316V87.139C186.316 85.852 185.48 85.038 184.226 85.038C183.357 85.038 182.598 85.445 182.202 86.061L182.114 85.17H181.388V91H182.301ZM190.676 91V90.23H190.027C189.488 90.23 189.202 89.922 189.202 89.339V85.94H190.775V85.17H189.202V83.179H188.289V85.17H187.211V85.94H188.289V89.339C188.289 90.417 188.894 91 190.027 91H190.676ZM192.764 91V87.942C192.764 86.743 193.479 86.039 194.711 86.039H194.909V85.137H194.711C193.743 85.137 193.061 85.533 192.687 86.281L192.577 85.17H191.851V91H192.764ZM197.706 91.088C198.718 91.088 199.378 90.67 199.719 89.999V90.175C199.719 90.714 200.049 91 200.676 91H201.193V90.252H200.863C200.665 90.252 200.566 90.153 200.566 89.966V87.128C200.566 85.896 199.642 85.038 198.201 85.038C196.815 85.038 195.781 85.841 195.671 86.985H196.573C196.672 86.292 197.332 85.819 198.179 85.819C199.059 85.819 199.664 86.336 199.675 87.073C199.664 87.546 198.894 87.535 198.003 87.623C196.837 87.744 195.539 87.997 195.539 89.339C195.539 90.406 196.386 91.088 197.706 91.088ZM197.838 90.307C197.002 90.307 196.452 89.922 196.452 89.317C196.452 88.569 197.255 88.459 198.058 88.371C198.773 88.294 199.422 88.228 199.675 87.887V88.646C199.675 89.614 198.927 90.307 197.838 90.307ZM204.824 91.121C206.331 91.121 207.299 90.23 207.464 88.723H206.573C206.408 89.735 205.77 90.329 204.835 90.329C203.746 90.329 202.844 89.537 202.844 88.052C202.844 86.677 203.614 85.83 204.769 85.83C205.748 85.83 206.419 86.446 206.573 87.414H207.464C207.299 85.918 206.254 85.038 204.791 85.038C203.207 85.038 201.92 86.094 201.92 88.052C201.92 89.735 202.932 91.121 204.824 91.121ZM211.548 91V90.23H210.899C210.36 90.23 210.074 89.922 210.074 89.339V85.94H211.647V85.17H210.074V83.179H209.161V85.17H208.083V85.94H209.161V89.339C209.161 90.417 209.766 91 210.899 91H211.548ZM215.71 91L216.612 88.8H220.176L221.078 91H222.035L218.856 83.3H217.921L214.753 91H215.71ZM218.394 84.477L219.824 87.964H216.964L218.394 84.477ZM225.051 91.121C225.854 91.121 226.558 90.78 226.943 90.12L227.02 91H227.746V85.17H226.833V88.712C226.822 89.592 226.228 90.318 225.139 90.318C224.314 90.318 223.731 89.867 223.731 89.031V85.17H222.818V89.064C222.818 90.252 223.632 91.121 225.051 91.121ZM231.598 91.121C232.555 91.121 233.325 90.637 233.71 89.878L233.809 91H234.535V82.75H233.622V86.039C233.204 85.423 232.467 85.038 231.587 85.038C230.025 85.038 228.947 86.27 228.947 88.052C228.947 89.867 230.036 91.121 231.598 91.121ZM231.741 90.329C230.652 90.329 229.893 89.394 229.893 88.052C229.893 86.732 230.674 85.819 231.796 85.819C232.874 85.819 233.622 86.721 233.622 88.03C233.622 89.383 232.852 90.329 231.741 90.329ZM236.527 84.191C236.912 84.191 237.198 83.894 237.198 83.509C237.198 83.124 236.912 82.838 236.527 82.838C236.142 82.838 235.845 83.124 235.845 83.509C235.845 83.894 236.142 84.191 236.527 84.191ZM236.978 91V85.17H236.065V91H236.978ZM241.508 91V90.23H240.859C240.32 90.23 240.034 89.922 240.034 89.339V85.94H241.607V85.17H240.034V83.179H239.121V85.17H238.043V85.94H239.121V89.339C239.121 90.417 239.726 91 240.859 91H241.508Z" fill="#222223"/>
</g>
<defs>
<clipPath id="clip0_670_60114">
<rect width="258" height="100" fill="white" transform="translate(12 12)"/>
</clipPath>
</defs>
</svg>
